HIERARCHY
ROOT Hips
{
	OFFSET 0 0 0
	CHANNELS 6 Xposition Yposition Zposition Yrotation Xrotation Zrotation
	JOINT Spine
	{
		OFFSET -0 8.26146 -2.63334
		CHANNELS 3 Yrotation Xrotation Zrotation
		JOINT Spine1
		{
			OFFSET -0 8.45076 0
			CHANNELS 3 Yrotation Xrotation Zrotation
			JOINT Spine2
			{
				OFFSET -0 8.45076 0
				CHANNELS 3 Yrotation Xrotation Zrotation
				JOINT Spine3
				{
					OFFSET -0 8.45076 0
					CHANNELS 3 Yrotation Xrotation Zrotation
					JOINT Neck
					{
						OFFSET -0 15.8135 3.63334
						CHANNELS 3 Yrotation Xrotation Zrotation
						JOINT Head
						{
							OFFSET -0 10.3268 0
							CHANNELS 3 Yrotation Xrotation Zrotation
							End Site
							{
								OFFSET 0 15 0
							}
						}
					}
					JOINT LeftShoulder
					{
						OFFSET 1.72114 4.79122 3.44228
						CHANNELS 3 Yrotation Xrotation Zrotation
						JOINT LeftArm
						{
							OFFSET 15.5839 0 0
							CHANNELS 3 Yrotation Xrotation Zrotation
							JOINT LeftForeArm
							{
								OFFSET 25.8212 0 0
								CHANNELS 3 Yrotation Xrotation Zrotation
								JOINT LeftHand
								{
									OFFSET 22.2052 0 0
									CHANNELS 3 Yrotation Xrotation Zrotation
									End Site
									{
										OFFSET 15 0 0
									}
								}
							}
						}
					}
					JOINT RightShoulder
					{
						OFFSET -1.72114 4.79122 3.44228
						CHANNELS 3 Yrotation Xrotation Zrotation
						JOINT RightArm
						{
							OFFSET -15.5839 0 0
							CHANNELS 3 Yrotation Xrotation Zrotation
							JOINT RightForeArm
							{
								OFFSET -25.8212 0 0
								CHANNELS 3 Yrotation Xrotation Zrotation
								JOINT RightHand
								{
									OFFSET -22.2052 0 0
									CHANNELS 3 Yrotation Xrotation Zrotation
									End Site
									{
										OFFSET -15 0 0
									}
								}
							}
						}
					}
				}
			}
		}
	}
	JOINT LeftUpLeg
	{
		OFFSET 10.3268 -3.44228 2
		CHANNELS 3 Yrotation Xrotation Zrotation
		JOINT LeftLeg
		{
			OFFSET -0 -42.4424 2.40959
			CHANNELS 3 Yrotation Xrotation Zrotation
			JOINT LeftFoot
			{
				OFFSET -0 -37.8309 -2.40959
				CHANNELS 3 Yrotation Xrotation Zrotation
				JOINT LeftToeBase
				{
					OFFSET -0 -6.64531 15.4902
					CHANNELS 3 Yrotation Xrotation Zrotation
					End Site
					{
						OFFSET 0 0 5
					}
				}
			}
		}
	}
	JOINT RightUpLeg
	{
		OFFSET -10.3268 -3.44228 2
		CHANNELS 3 Yrotation Xrotation Zrotation
		JOINT RightLeg
		{
			OFFSET -0 -42.4424 2.40959
			CHANNELS 3 Yrotation Xrotation Zrotation
			JOINT RightFoot
			{
				OFFSET -0 -37.8309 -2.40959
				CHANNELS 3 Yrotation Xrotation Zrotation
				JOINT RightToeBase
				{
					OFFSET -0 -6.64531 15.4902
					CHANNELS 3 Yrotation Xrotation Zrotation
					End Site
					{
						OFFSET 0 0 5
					}
				}
			}
		}
	}
}
MOTION
Frames: 16
Frame Time: 0.00833333
111.270056 93.272253 243.199805 -0.385441 -1.931913 -0.543304 -0.366604 -0.270499 -0.031351 -0.297924 -0.189697 -0.051534 -0.101774 -0.028589 -0.098793 -0.011597 0.099451 -0.187079 -14.430520 0.539696 -10.296022 -3.999823 8.277600 21.707587 10.742898 3.416155 -0.442624 -35.000419 -11.412543 -46.554203 -22.510134 0.883751 17.795225 -9.407943 -9.210435 14.152589 -11.583989 5.656085 -0.254450 33.108114 -10.329479 45.590801 29.667573 -6.708300 -24.766718 1.079384 -6.059400 -11.470114 10.006321 4.024691 1.945307 0.000000 3.939757 0.000000 -5.202969 -3.574177 5.563218 0.000000 -4.020457 0.000000 -4.149394 4.806313 2.971913 0.000000 3.634242 0.000000 -1.443565 -2.435510 -4.814943 0.000000 -4.017046 0.000000
111.276843 93.271399 243.164990 -0.416866 -1.952586 -0.542970 -0.344383 -0.303601 -0.025421 -0.276836 -0.205055 -0.076944 -0.110308 -0.076431 -0.137304 -0.035343 0.013607 -0.104092 -14.435762 0.908994 -10.333662 -3.985819 8.027269 21.656793 10.622941 3.326949 -0.435146 -35.277470 -12.252379 -44.308848 -22.768791 0.876372 17.359636 -9.070347 -8.729809 14.500182 -11.557720 5.711407 -0.301231 33.312738 -11.087174 43.283756 29.999891 -5.677639 -24.581942 0.989160 -7.021368 -12.140911 10.056725 4.029442 1.943654 0.000000 3.940563 0.000000 -5.232178 -3.570759 5.591619 0.000000 -3.968281 0.000000 -4.136026 4.795183 2.969236 0.000000 3.647786 0.000000 -1.431460 -2.423030 -4.842182 0.000000 -3.991738 0.000000
111.284070 93.274634 243.132471 -0.461252 -1.974023 -0.557481 -0.316364 -0.295184 -0.037585 -0.249608 -0.247186 -0.052586 -0.105163 -0.128848 -0.071737 -0.028821 -0.152518 -0.103377 -14.471757 1.219595 -10.598627 -3.912007 7.986325 21.806010 10.483869 3.353063 -0.592517 -36.040825 -12.630817 -41.820150 -22.938486 0.510999 17.258239 -8.979724 -8.096272 15.131724 -11.436468 5.751316 -0.264501 33.571285 -11.361437 40.895168 30.605572 -5.019960 -24.776231 0.496488 -7.985034 -12.611384 10.115819 4.026762 1.957350 0.000000 3.950661 0.000000 -5.228526 -3.568009 5.581858 0.000000 -3.973296 0.000000 -4.175910 4.793090 2.974938 0.000000 3.643138 0.000000 -1.361991 -2.374712 -4.840392 0.000000 -4.033281 0.000000
111.290979 93.272198 243.105151 -0.476872 -2.043271 -0.558444 -0.286471 -0.223135 -0.033252 -0.224486 -0.312168 -0.121585 -0.112625 -0.190971 -0.143241 -0.061303 -0.149669 0.062225 -14.448484 1.419732 -10.606487 -3.885827 7.874129 21.799070 10.500964 3.424176 -0.688623 -37.247729 -12.862003 -39.137711 -23.042501 0.367077 17.216493 -8.659280 -8.258264 15.677879 -11.169145 5.812381 -0.336502 33.495404 -12.081364 38.564347 30.982659 -4.374814 -24.598779 0.569940 -8.497894 -13.135326 10.157807 4.075304 1.964697 0.000000 3.960283 0.000000 -5.257849 -3.560061 5.605515 0.000000 -3.991853 0.000000 -4.186553 4.852073 2.962047 0.000000 3.629397 0.000000 -1.327244 -2.360987 -4.840495 0.000000 -4.026972 0.000000
111.300720 93.275909 243.081812 -0.469168 -2.056753 -0.557578 -0.227489 -0.257726 -0.053523 -0.169893 -0.307582 -0.057426 -0.226073 -0.273315 -0.054756 -0.145247 -0.184975 -0.228344 -14.447472 1.489552 -10.489976 -3.807333 8.132837 21.753790 10.471627 3.258952 -0.704205 -37.970890 -13.357371 -36.580428 -23.104148 -0.143290 17.067424 -8.220812 -7.224114 15.939813 -11.046228 5.655987 -0.093364 34.210154 -12.202986 36.173768 31.141331 -4.337043 -24.916326 0.273620 -8.511925 -13.793482 10.139976 4.066291 1.960650 0.000000 3.975147 0.000000 -5.256151 -3.542097 5.610635 0.000000 -3.966944 0.000000 -4.172804 4.859867 2.952016 0.000000 3.602804 0.000000 -1.332656 -2.341742 -4.808181 0.000000 -3.999010 0.000000
111.306360 93.278235 243.076782 -0.440947 -2.124881 -0.559343 -0.167012 -0.211223 -0.094840 -0.133703 -0.364637 -0.019026 -0.280105 -0.317281 -0.049422 -0.233197 -0.277376 -0.226187 -14.493234 1.736562 -10.531972 -3.773769 8.117238 21.715383 10.266433 3.271844 -0.895529 -38.504573 -13.981466 -34.009386 -23.244689 -0.312548 16.861107 -8.232607 -6.553803 16.484193 -11.007151 5.663554 -0.036162 34.929123 -12.373679 33.606067 31.662855 -4.666270 -25.057567 -0.094840 -8.243133 -14.502399 10.099735 4.158675 1.965014 0.000000 3.914834 0.000000 -5.230766 -3.492490 5.593023 0.000000 -4.018822 0.000000 -4.239761 4.955193 2.938311 0.000000 3.554990 0.000000 -1.299337 -2.298425 -4.791341 0.000000 -4.041486 0.000000
111.312292 93.277563 243.054810 -0.443904 -2.147336 -0.570166 -0.145380 -0.252446 -0.002587 -0.126538 -0.362032 -0.034800 -0.276964 -0.355735 -0.141993 -0.237004 -0.347711 -0.252638 -14.573508 1.946447 -10.530559 -3.771588 8.083434 21.697338 10.016744 3.126294 -1.016567 -39.169973 -14.258389 -31.383352 -23.526203 -0.653786 16.454475 -8.178227 -6.230896 17.387398 -10.764231 5.644557 0.046132 35.183393 -12.654858 31.170812 32.086021 -4.477159 -25.042665 -0.288541 -8.529622 -15.223461 10.100437 4.155597 1.973257 0.000000 3.937496 0.000000 -5.233349 -3.505831 5.613698 0.000000 -4.027301 0.000000 -4.255406 4.962366 2.945906 0.000000 3.561494 0.000000 -1.289802 -2.290999 -4.798327 0.000000 -4.019119 0.000000
111.320959 93.282477 243.036621 -0.423518 -2.161224 -0.571459 -0.141610 -0.255559 0.045965 -0.129479 -0.429983 -0.045692 -0.285579 -0.350012 -0.181162 -0.251567 -0.441539 -0.248027 -14.538757 2.059853 -10.806119 -3.661134 8.149705 22.081404 9.648595 3.093567 -1.243301 -39.613737 -14.781999 -28.780294 -23.723449 -0.761819 16.280248 -8.082990 -6.000545 17.818316 -10.545937 5.442021 -0.003801 35.544486 -12.811684 29.018976 32.384888 -4.376037 -25.444851 -0.194109 -8.778412 -15.253754 10.117188 4.148970 1.975222 0.000000 3.941545 0.000000 -5.281239 -3.481996 5.571495 0.000000 -3.974073 0.000000 -4.268184 4.964624 2.940084 0.000000 3.562029 0.000000 -1.300316 -2.283510 -4.763315 0.000000 -4.005367 0.000000
111.327881 93.284033 243.020947 -0.440460 -2.169975 -0.579162 -0.114779 -0.289745 0.082021 -0.112279 -0.428788 -0.059495 -0.300739 -0.414271 -0.217405 -0.270455 -0.515671 -0.254465 -14.563969 2.344999 -10.900498 -3.629213 7.992932 22.254299 9.359127 3.084304 -1.342353 -40.114765 -15.650674 -26.225917 -23.846743 -0.910962 15.952440 -7.975221 -5.726617 17.893741 -10.240840 5.196384 0.076429 35.775369 -12.934618 26.676017 33.116229 -4.948772 -25.400747 -0.682579 -8.009691 -15.751504 10.134214 4.149245 1.979269 0.000000 3.942582 0.000000 -5.298693 -3.471040 5.594198 0.000000 -3.993169 0.000000 -4.250392 4.963382 2.943015 0.000000 3.549995 0.000000 -1.293487 -2.249828 -4.739570 0.000000 -4.041697 0.000000
111.338257 93.285571 243.003442 -0.442143 -2.177761 -0.568140 -0.086650 -0.340784 0.111481 -0.092981 -0.416107 -0.052333 -0.325943 -0.445790 -0.227285 -0.297769 -0.544969 -0.302115 -14.642929 2.444796 -10.882660 -3.647713 7.988866 22.197089 8.957790 2.959591 -1.532594 -40.779161 -15.895465 -23.571774 -24.008019 -1.838525 15.868439 -8.218147 -5.115127 17.872925 -9.912843 5.063712 0.098552 36.037907 -13.254452 24.307796 33.657160 -5.497990 -25.471537 -0.617647 -7.338624 -16.220022 10.157318 4.138872 1.963211 0.000000 3.952457 0.000000 -5.314624 -3.448961 5.612059 0.000000 -4.057760 0.000000 -4.256033 4.972772 2.925294 0.000000 3.522293 0.000000 -1.291000 -2.236243 -4.747950 0.000000 -4.022634 0.000000
111.343726 93.288727 242.987866 -0.448250 -2.182577 -0.576548 -0.088179 -0.341806 0.129764 -0.101457 -0.439885 -0.059648 -0.335769 -0.486690 -0.242629 -0.313438 -0.601299 -0.281537 -14.648745 2.433940 -11.054241 -3.553672 8.220112 22.438856 8.634855 2.832240 -1.667762 -41.466065 -16.016536 -20.989707 -23.693823 -1.580899 16.238300 -8.439500 -4.797295 16.652246 -9.596477 4.788461 0.067050 36.291461 -13.031115 22.098709 34.468392 -6.127857 -25.713024 -0.449616 -6.957224 -16.232826 10.140918 4.139416 1.967386 0.000000 3.936666 0.000000 -5.296759 -3.419982 5.594885 0.000000 -4.070008 0.000000 -4.276131 4.980124 2.928661 0.000000 3.493779 0.000000 -1.254869 -2.191994 -4.798041 0.000000 -4.056104 0.000000
111.351636 93.290375 242.975928 -0.436643 -2.191606 -0.579928 -0.075616 -0.292160 0.162441 -0.091737 -0.531999 -0.055470 -0.313197 -0.518919 -0.259599 -0.296045 -0.666567 -0.274978 -14.792231 2.463696 -11.095603 -3.569872 8.357248 22.412692 8.140356 2.734717 -2.003835 -42.110650 -16.065051 -18.209827 -24.078567 -1.980607 15.735416 -8.523848 -5.653389 17.811564 -9.406931 4.567435 0.004338 36.689997 -13.672658 19.819346 34.645093 -7.231349 -25.601218 0.328373 -5.271478 -16.467581 10.115744 4.134610 1.962800 0.000000 3.947515 0.000000 -5.274353 -3.432953 5.588549 0.000000 -3.998581 0.000000 -4.278799 4.993678 2.924044 0.000000 3.473622 0.000000 -1.262726 -2.192163 -4.757130 0.000000 -4.002969 0.000000
111.362341 93.290509 242.972534 -0.434471 -2.190708 -0.583981 -0.065344 -0.337444 0.219792 -0.094167 -0.528258 -0.045237 -0.334288 -0.573594 -0.298048 -0.319493 -0.692526 -0.332204 -14.904358 2.747855 -11.198171 -3.619808 8.042029 22.615458 7.708946 2.581292 -2.277336 -42.597996 -16.230898 -15.509465 -24.466045 -2.489955 15.432682 -8.745979 -5.695384 18.174979 -9.067964 4.458155 0.063131 37.024296 -14.255874 17.441404 34.666912 -6.842419 -25.450484 0.048587 -5.578240 -16.512069 10.139341 4.134356 1.962385 0.000000 3.935747 0.000000 -5.326296 -3.417992 5.649621 0.000000 -4.011463 0.000000 -4.310248 5.004486 2.919915 0.000000 3.443025 0.000000 -1.239682 -2.145200 -4.794468 0.000000 -4.068412 0.000000
111.377502 93.295282 242.950293 -0.436686 -2.186025 -0.590725 -0.062933 -0.269942 0.279241 -0.098876 -0.586973 -0.016201 -0.312527 -0.607564 -0.310214 -0.299985 -0.817426 -0.428107 -14.956045 2.899540 -11.177285 -3.645546 7.907288 22.640411 7.128933 2.355548 -2.456038 -43.007245 -16.459845 -13.124657 -24.791638 -3.153659 15.625321 -8.364893 -4.671095 17.734652 -8.651375 4.163770 0.059359 37.196909 -14.124358 15.332267 35.461323 -8.207411 -25.765130 0.367818 -4.446203 -16.623244 10.111011 4.130924 1.955600 0.000000 3.905708 0.000000 -5.292067 -3.403482 5.615799 0.000000 -4.003587 0.000000 -4.288704 4.989983 2.917320 0.000000 3.423958 0.000000 -1.261488 -2.129140 -4.739302 0.000000 -4.050709 0.000000
111.385779 93.298187 242.948022 -0.439230 -2.183212 -0.592913 -0.055923 -0.286193 0.296927 -0.095717 -0.592643 0.002115 -0.342584 -0.646637 -0.283667 -0.333364 -0.902779 -0.485136 -14.985736 3.075329 -11.278754 -3.636661 7.792943 22.704890 6.609705 2.154936 -2.669023 -43.341413 -16.966385 -10.616252 -24.892869 -3.272993 15.330464 -8.553542 -4.577617 17.565742 -8.284594 3.909422 -0.048959 37.156968 -15.789281 13.414343 35.826646 -7.887127 -25.168457 0.583380 -3.827898 -16.757291 10.131618 4.135517 1.953661 0.000000 3.886191 0.000000 -5.305659 -3.391147 5.600132 0.000000 -4.008852 0.000000 -4.291924 4.993776 2.915186 0.000000 3.405383 0.000000 -1.260367 -2.128729 -4.724858 0.000000 -3.997628 0.000000
111.391162 93.299756 242.953198 -0.451604 -2.180615 -0.585944 -0.104481 -0.310555 0.283885 -0.143963 -0.584679 0.001316 -0.278032 -0.660555 -0.258261 -0.274822 -1.049679 -0.461045 -15.070176 3.238158 -11.424104 -3.622017 7.759598 22.845287 5.988561 1.944652 -2.792438 -43.673161 -17.319746 -8.402447 -25.195595 -3.840742 15.179430 -9.122769 -4.542123 17.863402 -7.836450 3.684381 -0.205039 37.279306 -16.536601 11.514810 36.257393 -8.120510 -25.151364 0.495314 -3.140277 -16.974217 10.194205 4.149556 1.949697 0.000000 3.863695 0.000000 -5.356560 -3.378295 5.588144 0.000000 -3.984792 0.000000 -4.283906 5.009511 2.902375 0.000000 3.368945 0.000000 -1.246197 -2.100832 -4.725825 0.000000 -4.034251 0.000000
